# xmcd
#
# Track frame offsets:
#        187
#        24082
#        41335
#
# Disc length: 803 seconds
#
# Revision: 0
# Processed by: cddbd v1.5.1PL0 Copyright (c) Steve Scherf et al.
# Submitted via: ExactAudioCopy v0.95a5
#
DISCID=13032103
DTITLE=Jon Bon Jovi - Janie, Don't Take Your Love To Town
DYEAR=1997
DGENRE=Hard Rock
TTITLE0=Janie, Don't Take Your Love To Town
TTITLE1=Sad Song Night
TTITLE2=August (Acoustic Version)
EXTD=
EXTT0=
EXTT1=
EXTT2=
PLAYORDER=
